<svg width="54" height="53" viewBox="0 0 54 53" fill="none" xmlns="http://www.w3.org/2000/svg">
<path d="M30 53H24V50.35H18V47.7H12V45.05H6V42.4H0V10.6H6V7.95H12V5.3H18V2.65H24V0H30V2.65H36V5.3H42V7.95H48V10.6H54V42.4H48V45.05H42V47.7H36V50.35H30M30 23.85V21.2H36V18.55H42V15.9H48V13.25H42V10.6H36V7.95H30V5.3H24V7.95H18V10.6H12V13.25H6V15.9H12V18.55H18V21.2H24V23.85M24 45.05V26.5H18V23.85H12V21.2H6V39.75H12V42.4H18V45.05M36 45.05V42.4H42V39.75H48V21.2H42V23.85H36V26.5H30V45.05H36Z" fill="black"/>
</svg>
