<svg width="49" height="53" viewBox="0 0 49 53" fill="none" xmlns="http://www.w3.org/2000/svg">
<path d="M0 5.3C0 3.89435 0.64531 2.54628 1.79397 1.55233C2.94263 0.558391 4.50055 0 6.125 0H30.625C31.4372 0.000150089 32.216 0.279444 32.7902 0.77645L48.1027 14.0265C48.6771 14.5233 48.9998 15.1972 49 15.9V47.7C49 49.1056 48.3547 50.4537 47.206 51.4477C46.0574 52.4416 44.4995 53 42.875 53H6.125C4.50055 53 2.94263 52.4416 1.79397 51.4477C0.64531 50.4537 0 49.1056 0 47.7V5.3ZM41.6071 15.9L30.625 6.3971V15.9H41.6071ZM24.5 5.3H6.125V47.7H42.875V21.2H27.5625C26.7503 21.2 25.9713 20.9208 25.397 20.4238C24.8227 19.9269 24.5 19.2528 24.5 18.55V5.3ZM12.25 29.15C12.25 28.4472 12.5727 27.7731 13.147 27.2762C13.7213 26.7792 14.5003 26.5 15.3125 26.5H33.6875C34.4997 26.5 35.2787 26.7792 35.853 27.2762C36.4273 27.7731 36.75 28.4472 36.75 29.15C36.75 29.8528 36.4273 30.5269 35.853 31.0238C35.2787 31.5208 34.4997 31.8 33.6875 31.8H15.3125C14.5003 31.8 13.7213 31.5208 13.147 31.0238C12.5727 30.5269 12.25 29.8528 12.25 29.15ZM12.25 39.75C12.25 39.0472 12.5727 38.3731 13.147 37.8762C13.7213 37.3792 14.5003 37.1 15.3125 37.1H33.6875C34.4997 37.1 35.2787 37.3792 35.853 37.8762C36.4273 38.3731 36.75 39.0472 36.75 39.75C36.75 40.4528 36.4273 41.1269 35.853 41.6238C35.2787 42.1208 34.4997 42.4 33.6875 42.4H15.3125C14.5003 42.4 13.7213 42.1208 13.147 41.6238C12.5727 41.1269 12.25 40.4528 12.25 39.75Z" fill="black"/>
</svg>
