<svg width="49" height="50" viewBox="0 0 49 50" fill="none" xmlns="http://www.w3.org/2000/svg">
<path d="M32.7919 21.3164L30.6271 28.3924L28.4623 21.3164L26.2975 28.3924L24.1327 21.3164M34.8309 27.7955C35.3106 28.2051 35.8284 28.3924 36.9897 28.3924H37.5776C38.5359 28.3924 39.3125 27.5997 39.3125 26.6234C39.3125 25.6459 38.5359 24.8544 37.5788 24.8544H36.4008C35.4424 24.8544 34.667 24.0629 34.667 23.0854C34.667 22.1091 35.4424 21.3164 36.4008 21.3164H36.9897C38.1511 21.3164 38.6677 21.5037 39.1474 21.9133M14.8738 28.3924V23.9868C14.8738 22.5127 13.6981 21.3164 12.2494 21.3164C10.8006 21.3164 9.625 22.5127 9.625 23.9868M9.625 28.3924V21.3164M22.0664 27.0451C21.837 27.4544 21.5052 27.7946 21.1048 28.0313C20.7043 28.2679 20.2495 28.3925 19.7864 28.3924C19.0904 28.3924 18.4229 28.1111 17.9307 27.6103C17.4386 27.1095 17.1621 26.4302 17.1621 25.722V23.9868C17.1621 22.5127 18.3377 21.3164 19.7864 21.3164C21.2352 21.3164 22.4108 22.5127 22.4108 23.9868V24.8544H17.1621" stroke="black" stroke-linecap="round" stroke-linejoin="round"/>
<path d="M41.6875 2.5H7.25C4.62665 2.5 2.5 4.66396 2.5 7.33333V42.375C2.5 45.0444 4.62665 47.2083 7.25 47.2083H41.6875C44.3109 47.2083 46.4375 45.0444 46.4375 42.375V7.33333C46.4375 4.66396 44.3109 2.5 41.6875 2.5Z" stroke="black" stroke-width="5" stroke-linecap="round" stroke-linejoin="round"/>
</svg>
