<svg width="53" height="52" viewBox="0 0 53 52" fill="none" xmlns="http://www.w3.org/2000/svg">
<path d="M35.333 26C33.0629 26 30.8678 24.6438 29.1497 22.1827C27.4791 19.7821 26.4589 16.5809 26.2789 13.1713C26.0868 9.53431 26.916 6.18977 28.6131 3.75227C30.3102 1.31477 32.683 0 35.333 0C37.9642 0 40.3437 1.33841 42.0353 3.77C43.7434 6.22522 44.5749 9.56385 44.3827 13.1699C44.1983 16.5838 43.1792 19.7836 41.5119 22.1812C39.7983 24.6438 37.6043 26 35.333 26ZM49.8892 51.9999H20.778C20.3099 52.0033 19.8476 51.8629 19.4264 51.5897C19.0053 51.3164 18.6366 50.9175 18.3488 50.4237C18.0435 49.8884 17.8327 49.2676 17.7321 48.6078C17.6315 47.948 17.6438 47.2663 17.768 46.6138C18.6977 41.6192 21.001 37.4769 24.4283 34.6361C27.4703 32.1159 31.3426 30.7272 35.333 30.7272C39.4019 30.7272 43.1726 32.0568 46.2322 34.5755C49.6672 37.4015 51.9738 41.5675 52.8991 46.6227C53.0218 47.2757 53.0327 47.9573 52.931 48.6168C52.8293 49.2762 52.6176 49.8964 52.3117 50.4311C52.0242 50.9226 51.6564 51.3195 51.2365 51.5915C50.8166 51.8634 50.3557 52.0031 49.8892 51.9999ZM14.4644 26.5909C10.5788 26.5909 7.16257 21.7572 6.84567 15.8171C6.68888 12.774 7.39775 9.95976 8.83316 7.89601C10.2531 5.85295 12.2561 4.72727 14.4644 4.72727C16.6727 4.72727 18.6602 5.85886 20.0879 7.91374C21.5343 9.99374 22.241 12.802 22.0754 15.8201C21.7585 21.7587 18.3433 26.5909 14.4644 26.5909ZM21.7143 31.2369C19.7721 29.9664 17.2513 29.3312 14.4655 29.3312C11.2126 29.3312 8.05362 30.4658 5.56926 32.5251C2.75255 34.8636 0.857807 38.2687 0.0926239 42.38C-0.0193544 42.9713 -0.0299456 43.5889 0.0616427 44.1865C0.153231 44.784 0.344628 45.3462 0.621517 45.8309C0.88425 46.2821 1.22084 46.6467 1.6054 46.8967C1.98996 47.1467 2.41224 47.2753 2.83978 47.2727H15.096C15.3028 47.2726 15.5031 47.1755 15.6619 46.9981C15.8207 46.8207 15.928 46.5744 15.9649 46.3021C15.9771 46.209 15.9925 46.116 16.0102 46.0244C16.9465 40.9928 19.1405 36.7412 22.3823 33.6419C22.5016 33.5269 22.5975 33.3739 22.6613 33.1968C22.7252 33.0197 22.7551 32.8241 22.7481 32.6276C22.7412 32.4312 22.6978 32.2402 22.6218 32.0719C22.5457 31.9036 22.4395 31.7633 22.3128 31.6638C22.1394 31.5279 21.9407 31.3846 21.7143 31.2369Z" fill="black"/>
</svg>
